<?xml version="1.0" encoding="UTF-8" standalone="no"?><svg xmlns="http://www.w3.org/2000/svg" xmlns:xlink="http://www.w3.org/1999/xlink" contentStyleType="text/css" height="747px" preserveAspectRatio="none" style="width:407px;height:747px;background:#FFFFFF;" version="1.1" viewBox="0 0 407 747" width="407px" zoomAndPan="magnify"><defs/><g><!--MD5=[d937b3b706c3f306f01927ee4adaac57]
class Wave--><g id="elem_Wave"><rect codeLine="1" fill="#F1F1F1" height="124.2717" id="Wave" rx="2.5" ry="2.5" style="stroke:#181818;stroke-width:0.5;" width="142" x="32" y="7"/><ellipse cx="80.75" cy="23" fill="#ADD1B2" rx="11" ry="11" style="stroke:#181818;stroke-width:1.0;"/><path d="M80.2188,29.9219 Q78.4688,29.9219 77.3281,29.1875 Q76.2031,28.4375 75.6406,27.0938 Q75.0938,25.7344 75.0938,23.9375 Q75.0938,21.9063 75.75,20.4531 Q76.4063,19 77.6875,18.2188 Q78.9688,17.4375 80.8438,17.4375 Q81.7344,17.4375 82.4063,17.625 Q83.0781,17.7969 83.7656,18.1406 L82.9531,20.1563 Q82.3281,19.8438 81.7813,19.7188 Q81.25,19.5938 80.7656,19.5938 Q79.5938,19.5938 78.8906,20.125 Q78.1875,20.6563 77.8906,21.6094 Q77.5938,22.5625 77.5938,23.8281 Q77.5938,25.8438 78.3125,26.8125 Q79.0313,27.7656 80.625,27.7656 Q81.2188,27.7656 81.8438,27.6094 Q82.4688,27.4531 83.2969,27.0781 L83.2969,29.2969 Q82.5625,29.6094 81.7656,29.7656 Q80.9844,29.9219 80.2188,29.9219 Z " fill="#000000"/><text fill="#000000" font-family="sans-serif" font-size="14" lengthAdjust="spacing" textLength="36" x="101.25" y="28.432">Wave</text><line style="stroke:#181818;stroke-width:0.5;" x1="33" x2="173" y1="39" y2="39"/><text fill="#000000" font-family="sans-serif" font-size="14" lengthAdjust="spacing" textLength="26" x="38" y="57.9659">title</text><text fill="#000000" font-family="sans-serif" font-size="14" lengthAdjust="spacing" textLength="119" x="38" y="77.0339">creationDateTime</text><text fill="#000000" font-family="sans-serif" font-size="14" lengthAdjust="spacing" textLength="57" x="38" y="96.1018">isPrivate</text><text fill="#000000" font-family="sans-serif" font-size="14" lengthAdjust="spacing" textLength="130" x="38" y="115.1697">participants: User[]</text><line style="stroke:#181818;stroke-width:0.5;" x1="33" x2="173" y1="123.2717" y2="123.2717"/></g><!--MD5=[948346f2dfe9866ea883595a582714fa]
class Thread--><g id="elem_Thread"><rect codeLine="8" fill="#F1F1F1" height="105.2038" id="Thread" rx="2.5" ry="2.5" style="stroke:#181818;stroke-width:0.5;" width="137" x="34.5" y="210"/><ellipse cx="75.15" cy="226" fill="#ADD1B2" rx="11" ry="11" style="stroke:#181818;stroke-width:1.0;"/><path d="M74.6188,232.9219 Q72.8688,232.9219 71.7281,232.1875 Q70.6031,231.4375 70.0406,230.0938 Q69.4938,228.7344 69.4938,226.9375 Q69.4938,224.9063 70.15,223.4531 Q70.8063,222 72.0875,221.2188 Q73.3688,220.4375 75.2438,220.4375 Q76.1344,220.4375 76.8063,220.625 Q77.4781,220.7969 78.1656,221.1406 L77.3531,223.1563 Q76.7281,222.8438 76.1813,222.7188 Q75.65,222.5938 75.1656,222.5938 Q73.9938,222.5938 73.2906,223.125 Q72.5875,223.6563 72.2906,224.6094 Q71.9938,225.5625 71.9938,226.8281 Q71.9938,228.8438 72.7125,229.8125 Q73.4313,230.7656 75.025,230.7656 Q75.6188,230.7656 76.2438,230.6094 Q76.8688,230.4531 77.6969,230.0781 L77.6969,232.2969 Q76.9625,232.6094 76.1656,232.7656 Q75.3844,232.9219 74.6188,232.9219 Z " fill="#000000"/><text fill="#000000" font-family="sans-serif" font-size="14" lengthAdjust="spacing" textLength="48" x="94.85" y="231.432">Thread</text><line style="stroke:#181818;stroke-width:0.5;" x1="35.5" x2="170.5" y1="242" y2="242"/><text fill="#000000" font-family="sans-serif" font-size="14" lengthAdjust="spacing" textLength="26" x="40.5" y="260.9659">title</text><text fill="#000000" font-family="sans-serif" font-size="14" lengthAdjust="spacing" textLength="119" x="40.5" y="280.0339">creationDateTime</text><text fill="#000000" font-family="sans-serif" font-size="14" lengthAdjust="spacing" textLength="125" x="40.5" y="299.1018">parentWave: Wave</text><line style="stroke:#181818;stroke-width:0.5;" x1="35.5" x2="170.5" y1="307.2038" y2="307.2038"/></g><!--MD5=[98df0f29f8902419e98f84c7decc5a9c]
class Blip--><g id="elem_Blip"><rect codeLine="14" fill="#F1F1F1" height="162.4075" id="Blip" rx="2.5" ry="2.5" style="stroke:#181818;stroke-width:0.5;" width="192" x="7" y="394"/><ellipse cx="85.75" cy="410" fill="#ADD1B2" rx="11" ry="11" style="stroke:#181818;stroke-width:1.0;"/><path d="M85.2188,416.9219 Q83.4688,416.9219 82.3281,416.1875 Q81.2031,415.4375 80.6406,414.0938 Q80.0938,412.7344 80.0938,410.9375 Q80.0938,408.9063 80.75,407.4531 Q81.4063,406 82.6875,405.2188 Q83.9688,404.4375 85.8438,404.4375 Q86.7344,404.4375 87.4063,404.625 Q88.0781,404.7969 88.7656,405.1406 L87.9531,407.1563 Q87.3281,406.8438 86.7813,406.7188 Q86.25,406.5938 85.7656,406.5938 Q84.5938,406.5938 83.8906,407.125 Q83.1875,407.6563 82.8906,408.6094 Q82.5938,409.5625 82.5938,410.8281 Q82.5938,412.8438 83.3125,413.8125 Q84.0313,414.7656 85.625,414.7656 Q86.2188,414.7656 86.8438,414.6094 Q87.4688,414.4531 88.2969,414.0781 L88.2969,416.2969 Q87.5625,416.6094 86.7656,416.7656 Q85.9844,416.9219 85.2188,416.9219 Z " fill="#000000"/><text fill="#000000" font-family="sans-serif" font-size="14" lengthAdjust="spacing" textLength="26" x="106.25" y="415.432">Blip</text><line style="stroke:#181818;stroke-width:0.5;" x1="8" x2="198" y1="426" y2="426"/><text fill="#000000" font-family="sans-serif" font-size="14" lengthAdjust="spacing" textLength="51" x="13" y="444.9659">content</text><text fill="#000000" font-family="sans-serif" font-size="14" lengthAdjust="spacing" textLength="119" x="13" y="464.0339">creationDateTime</text><text fill="#000000" font-family="sans-serif" font-size="14" lengthAdjust="spacing" textLength="149" x="13" y="483.1018">parentThread: Thread</text><text fill="#000000" font-family="sans-serif" font-size="14" lengthAdjust="spacing" textLength="84" x="13" y="502.1697">author: User</text><text fill="#000000" font-family="sans-serif" font-size="14" lengthAdjust="spacing" textLength="172" x="13" y="521.2376">annotations: Annotation[]</text><text fill="#000000" font-family="sans-serif" font-size="14" lengthAdjust="spacing" textLength="180" x="13" y="540.3055">attachments: Attachment[]</text><line style="stroke:#181818;stroke-width:0.5;" x1="8" x2="198" y1="548.4075" y2="548.4075"/></g><!--MD5=[faebc81c07309c527f2fda51bf6b78ab]
class Annotation--><g id="elem_Annotation"><rect codeLine="24" fill="#F1F1F1" height="124.2717" id="Annotation" rx="2.5" ry="2.5" style="stroke:#181818;stroke-width:0.5;" width="131" x="269.5" y="413"/><ellipse cx="295.75" cy="429" fill="#ADD1B2" rx="11" ry="11" style="stroke:#181818;stroke-width:1.0;"/><path d="M295.2188,435.9219 Q293.4688,435.9219 292.3281,435.1875 Q291.2031,434.4375 290.6406,433.0938 Q290.0938,431.7344 290.0938,429.9375 Q290.0938,427.9063 290.75,426.4531 Q291.4063,425 292.6875,424.2188 Q293.9688,423.4375 295.8438,423.4375 Q296.7344,423.4375 297.4063,423.625 Q298.0781,423.7969 298.7656,424.1406 L297.9531,426.1563 Q297.3281,425.8438 296.7813,425.7188 Q296.25,425.5938 295.7656,425.5938 Q294.5938,425.5938 293.8906,426.125 Q293.1875,426.6563 292.8906,427.6094 Q292.5938,428.5625 292.5938,429.8281 Q292.5938,431.8438 293.3125,432.8125 Q294.0313,433.7656 295.625,433.7656 Q296.2188,433.7656 296.8438,433.6094 Q297.4688,433.4531 298.2969,433.0781 L298.2969,435.2969 Q297.5625,435.6094 296.7656,435.7656 Q295.9844,435.9219 295.2188,435.9219 Z " fill="#000000"/><text fill="#000000" font-family="sans-serif" font-size="14" lengthAdjust="spacing" textLength="74" x="312.25" y="434.432">Annotation</text><line style="stroke:#181818;stroke-width:0.5;" x1="270.5" x2="399.5" y1="445" y2="445"/><text fill="#000000" font-family="sans-serif" font-size="14" lengthAdjust="spacing" textLength="51" x="275.5" y="463.9659">content</text><text fill="#000000" font-family="sans-serif" font-size="14" lengthAdjust="spacing" textLength="119" x="275.5" y="483.0339">creationDateTime</text><text fill="#000000" font-family="sans-serif" font-size="14" lengthAdjust="spacing" textLength="105" x="275.5" y="502.1018">parentBlip: Blip</text><text fill="#000000" font-family="sans-serif" font-size="14" lengthAdjust="spacing" textLength="84" x="275.5" y="521.1697">author: User</text><line style="stroke:#181818;stroke-width:0.5;" x1="270.5" x2="399.5" y1="529.2717" y2="529.2717"/></g><!--MD5=[028e5a1dffb388095f9b7f9e3d783fca]
class Attachment--><g id="elem_Attachment"><rect codeLine="31" fill="#F1F1F1" height="105.2038" id="Attachment" rx="2.5" ry="2.5" style="stroke:#181818;stroke-width:0.5;" width="117" x="44.5" y="635"/><ellipse cx="62.65" cy="651" fill="#ADD1B2" rx="11" ry="11" style="stroke:#181818;stroke-width:1.0;"/><path d="M62.1188,657.9219 Q60.3688,657.9219 59.2281,657.1875 Q58.1031,656.4375 57.5406,655.0938 Q56.9938,653.7344 56.9938,651.9375 Q56.9938,649.9063 57.65,648.4531 Q58.3063,647 59.5875,646.2188 Q60.8688,645.4375 62.7438,645.4375 Q63.6344,645.4375 64.3063,645.625 Q64.9781,645.7969 65.6656,646.1406 L64.8531,648.1563 Q64.2281,647.8438 63.6813,647.7188 Q63.15,647.5938 62.6656,647.5938 Q61.4938,647.5938 60.7906,648.125 Q60.0875,648.6563 59.7906,649.6094 Q59.4938,650.5625 59.4938,651.8281 Q59.4938,653.8438 60.2125,654.8125 Q60.9313,655.7656 62.525,655.7656 Q63.1188,655.7656 63.7438,655.6094 Q64.3688,655.4531 65.1969,655.0781 L65.1969,657.2969 Q64.4625,657.6094 63.6656,657.7656 Q62.8844,657.9219 62.1188,657.9219 Z " fill="#000000"/><text fill="#000000" font-family="sans-serif" font-size="14" lengthAdjust="spacing" textLength="78" x="77.35" y="656.432">Attachment</text><line style="stroke:#181818;stroke-width:0.5;" x1="45.5" x2="160.5" y1="667" y2="667"/><text fill="#000000" font-family="sans-serif" font-size="14" lengthAdjust="spacing" textLength="61" x="50.5" y="685.9659">fileName</text><text fill="#000000" font-family="sans-serif" font-size="14" lengthAdjust="spacing" textLength="52" x="50.5" y="705.0339">fileData</text><text fill="#000000" font-family="sans-serif" font-size="14" lengthAdjust="spacing" textLength="105" x="50.5" y="724.1018">parentBlip: Blip</text><line style="stroke:#181818;stroke-width:0.5;" x1="45.5" x2="160.5" y1="732.2038" y2="732.2038"/></g><!--MD5=[3fd616f346a44cd59a91eb10b19e157c]
class User--><g id="elem_User"><rect codeLine="37" fill="#F1F1F1" height="86.1358" id="User" rx="2.5" ry="2.5" style="stroke:#181818;stroke-width:0.5;" width="63" x="230.5" y="644.5"/><ellipse cx="245.5" cy="660.5" fill="#ADD1B2" rx="11" ry="11" style="stroke:#181818;stroke-width:1.0;"/><path d="M244.9688,667.4219 Q243.2188,667.4219 242.0781,666.6875 Q240.9531,665.9375 240.3906,664.5938 Q239.8438,663.2344 239.8438,661.4375 Q239.8438,659.4063 240.5,657.9531 Q241.1563,656.5 242.4375,655.7188 Q243.7188,654.9375 245.5938,654.9375 Q246.4844,654.9375 247.1563,655.125 Q247.8281,655.2969 248.5156,655.6406 L247.7031,657.6563 Q247.0781,657.3438 246.5313,657.2188 Q246,657.0938 245.5156,657.0938 Q244.3438,657.0938 243.6406,657.625 Q242.9375,658.1563 242.6406,659.1094 Q242.3438,660.0625 242.3438,661.3281 Q242.3438,663.3438 243.0625,664.3125 Q243.7813,665.2656 245.375,665.2656 Q245.9688,665.2656 246.5938,665.1094 Q247.2188,664.9531 248.0469,664.5781 L248.0469,666.7969 Q247.3125,667.1094 246.5156,667.2656 Q245.7344,667.4219 244.9688,667.4219 Z " fill="#000000"/><text fill="#000000" font-family="sans-serif" font-size="14" lengthAdjust="spacing" textLength="31" x="259.5" y="665.932">User</text><line style="stroke:#181818;stroke-width:0.5;" x1="231.5" x2="292.5" y1="676.5" y2="676.5"/><text fill="#000000" font-family="sans-serif" font-size="14" lengthAdjust="spacing" textLength="38" x="236.5" y="695.4659">name</text><text fill="#000000" font-family="sans-serif" font-size="14" lengthAdjust="spacing" textLength="37" x="236.5" y="714.5339">email</text><line style="stroke:#181818;stroke-width:0.5;" x1="231.5" x2="292.5" y1="722.6358" y2="722.6358"/></g><!--MD5=[6799959a82085bd550e888ac0edc64d7]
link Wave to Thread--><g id="link_Wave_Thread"><path codeLine="42" d="M103,131.12 C103,156.51 103,185.66 103,209.95 " fill="none" id="Wave-Thread" style="stroke:#181818;stroke-width:1.0;"/><polygon fill="#000000" points="108,175.853,110.9389,166.8079,105.0611,166.8079,108,175.853" style="stroke:#000000;stroke-width:1.0;"/><text fill="#000000" font-family="sans-serif" font-size="13" lengthAdjust="spacing" textLength="51" x="117" y="175.897">contains</text><text fill="#000000" font-family="sans-serif" font-size="13" lengthAdjust="spacing" textLength="7" x="95.5953" y="153.2076">1</text><text fill="#000000" font-family="sans-serif" font-size="13" lengthAdjust="spacing" textLength="20" x="81.5938" y="198.2972">0..*</text></g><!--MD5=[7904d776b3b906aa05edeb4265cccab3]
link Thread to Blip--><g id="link_Thread_Blip"><path codeLine="43" d="M103,315.26 C103,338.88 103,367.39 103,393.69 " fill="none" id="Thread-Blip" style="stroke:#181818;stroke-width:1.0;"/><polygon fill="#000000" points="108,359.853,110.9389,350.8079,105.0611,350.8079,108,359.853" style="stroke:#000000;stroke-width:1.0;"/><text fill="#000000" font-family="sans-serif" font-size="13" lengthAdjust="spacing" textLength="51" x="117" y="359.897">contains</text><text fill="#000000" font-family="sans-serif" font-size="13" lengthAdjust="spacing" textLength="7" x="95.5516" y="337.0381">1</text><text fill="#000000" font-family="sans-serif" font-size="13" lengthAdjust="spacing" textLength="20" x="82.0781" y="382.3214">0..*</text></g><!--MD5=[0eec3c5e811716ad3e86593fe131ea18]
link Blip to Attachment--><g id="link_Blip_Attachment"><path codeLine="44" d="M103,556.18 C103,582.56 103,611.16 103,634.83 " fill="none" id="Blip-Attachment" style="stroke:#181818;stroke-width:1.0;"/><polygon fill="#000000" points="108,600.853,110.9389,591.8079,105.0611,591.8079,108,600.853" style="stroke:#000000;stroke-width:1.0;"/><text fill="#000000" font-family="sans-serif" font-size="13" lengthAdjust="spacing" textLength="21" x="117" y="600.897">has</text><text fill="#000000" font-family="sans-serif" font-size="13" lengthAdjust="spacing" textLength="20" x="82.0781" y="578.3581">0..*</text><text fill="#000000" font-family="sans-serif" font-size="13" lengthAdjust="spacing" textLength="20" x="81.5938" y="623.1603">0..*</text></g><!--MD5=[15a8f0d16c41851bf3e8d105c8896ea7]
link Blip to Annotation--><g id="link_Blip_Annotation"><path codeLine="45" d="M199.04,475 C222.72,475 247.55,475 269.42,475 " fill="none" id="Blip-Annotation" style="stroke:#181818;stroke-width:1.0;"/><polygon fill="#000000" points="226.25,462.853,217.2049,459.9141,217.2049,465.7919,226.25,462.853" style="stroke:#000000;stroke-width:1.0;"/><text fill="#000000" font-family="sans-serif" font-size="13" lengthAdjust="spacing" textLength="21" x="230.25" y="467.897">has</text><text fill="#000000" font-family="sans-serif" font-size="13" lengthAdjust="spacing" textLength="20" x="207.1587" y="489.5592">0..*</text><text fill="#000000" font-family="sans-serif" font-size="13" lengthAdjust="spacing" textLength="20" x="241.6258" y="489.796">0..*</text></g><!--MD5=[60da1b2f252c032139d50f6fd5d36c05]
link Blip to User--><g id="link_Blip_User"><path codeLine="46" d="M163.56,556.18 C186.29,586.27 211.22,619.27 230.3,644.53 " fill="none" id="Blip-User" style="stroke:#181818;stroke-width:1.0;"/><polygon fill="#000000" points="205.0138,599.8426,201.9068,590.8539,197.2168,594.3968,205.0138,599.8426" style="stroke:#000000;stroke-width:1.0;"/><text fill="#000000" font-family="sans-serif" font-size="13" lengthAdjust="spacing" textLength="63" x="211" y="600.897">created by</text><text fill="#000000" font-family="sans-serif" font-size="13" lengthAdjust="spacing" textLength="7" x="161.8202" y="578.3581">1</text><text fill="#000000" font-family="sans-serif" font-size="13" lengthAdjust="spacing" textLength="7" x="217.25" y="632.6296">1</text></g><!--MD5=[f41a4d6c0ab6b15319c08537baf3c098]
link Annotation to User--><g id="link_Annotation_User"><path codeLine="47" d="M313.79,537.17 C301.87,571.52 287.31,613.52 276.66,644.22 " fill="none" id="Annotation-User" style="stroke:#181818;stroke-width:1.0;"/><polygon fill="#000000" points="299.3615,600.5769,305.1022,592.9944,299.5489,591.0682,299.3615,600.5769" style="stroke:#000000;stroke-width:1.0;"/><text fill="#000000" font-family="sans-serif" font-size="13" lengthAdjust="spacing" textLength="63" x="310" y="600.897">created by</text><text fill="#000000" font-family="sans-serif" font-size="13" lengthAdjust="spacing" textLength="7" x="303.9329" y="559.2633">1</text><text fill="#000000" font-family="sans-serif" font-size="13" lengthAdjust="spacing" textLength="7" x="271.5084" y="632.5882">1</text></g><!--MD5=[57ed73061c7399ffac78ac51af52c56d]
@startuml
class Wave {
  title
  creationDateTime
  isPrivate
  participants: User[]
}

class Thread {
  title
  creationDateTime
  parentWave: Wave
}

class Blip {
  content
  creationDateTime
  parentThread: Thread
  author: User
  annotations: Annotation[]
  attachments: Attachment[]
}


class Annotation {
  content
  creationDateTime
  parentBlip: Blip
  author: User
}

class Attachment {
  fileName
  fileData
  parentBlip: Blip
}

class User {
  name
  email
}

Wave "1" - - "0..*" Thread: contains >
Thread "1" - - "0..*" Blip: contains >
Blip "0..*" - - "0..*" Attachment: has >
Blip "0..*" -r- "0..*" Annotation: has >
Blip "1" - - "1" User: created by >
Annotation "1" - - "1" User: created by >
@enduml

PlantUML version 1.2022.7(Mon Aug 22 19:01:30 CEST 2022)
(GPL source distribution)
Java Runtime: OpenJDK Runtime Environment
JVM: OpenJDK 64-Bit Server VM
Default Encoding: UTF-8
Language: es
Country: ES
--></g></svg>