<?xml version="1.0" encoding="UTF-8" standalone="no"?><svg xmlns="http://www.w3.org/2000/svg" xmlns:xlink="http://www.w3.org/1999/xlink" contentStyleType="text/css" height="430px" preserveAspectRatio="none" style="width:545px;height:430px;background:#FFFFFF;" version="1.1" viewBox="0 0 545 430" width="545px" zoomAndPan="magnify"><defs/><g><!--MD5=[d937b3b706c3f306f01927ee4adaac57]
class Wave--><g id="elem_Wave"><rect codeLine="1" fill="#F1F1F1" height="86.1358" id="Wave" rx="2.5" ry="2.5" style="stroke:#181818;stroke-width:0.5;" width="131" x="186" y="7"/><ellipse cx="229.35" cy="23" fill="#ADD1B2" rx="11" ry="11" style="stroke:#181818;stroke-width:1.0;"/><path d="M228.8188,29.9219 Q227.0688,29.9219 225.9281,29.1875 Q224.8031,28.4375 224.2406,27.0938 Q223.6938,25.7344 223.6938,23.9375 Q223.6938,21.9063 224.35,20.4531 Q225.0063,19 226.2875,18.2188 Q227.5688,17.4375 229.4438,17.4375 Q230.3344,17.4375 231.0063,17.625 Q231.6781,17.7969 232.3656,18.1406 L231.5531,20.1563 Q230.9281,19.8438 230.3813,19.7188 Q229.85,19.5938 229.3656,19.5938 Q228.1938,19.5938 227.4906,20.125 Q226.7875,20.6563 226.4906,21.6094 Q226.1938,22.5625 226.1938,23.8281 Q226.1938,25.8438 226.9125,26.8125 Q227.6313,27.7656 229.225,27.7656 Q229.8188,27.7656 230.4438,27.6094 Q231.0688,27.4531 231.8969,27.0781 L231.8969,29.2969 Q231.1625,29.6094 230.3656,29.7656 Q229.5844,29.9219 228.8188,29.9219 Z " fill="#000000"/><text fill="#000000" font-family="sans-serif" font-size="14" lengthAdjust="spacing" textLength="36" x="249.65" y="28.432">Wave</text><line style="stroke:#181818;stroke-width:0.5;" x1="187" x2="316" y1="39" y2="39"/><text fill="#000000" font-family="sans-serif" font-size="14" lengthAdjust="spacing" textLength="26" x="192" y="57.9659">title</text><text fill="#000000" font-family="sans-serif" font-size="14" lengthAdjust="spacing" textLength="119" x="192" y="77.0339">creationDateTime</text><line style="stroke:#181818;stroke-width:0.5;" x1="187" x2="316" y1="85.1358" y2="85.1358"/></g><!--MD5=[98df0f29f8902419e98f84c7decc5a9c]
class Blip--><g id="elem_Blip"><rect codeLine="6" fill="#F1F1F1" height="105.2038" id="Blip" rx="2.5" ry="2.5" style="stroke:#181818;stroke-width:0.5;" width="137" x="183" y="318"/><ellipse cx="234.25" cy="334" fill="#ADD1B2" rx="11" ry="11" style="stroke:#181818;stroke-width:1.0;"/><path d="M233.7188,340.9219 Q231.9688,340.9219 230.8281,340.1875 Q229.7031,339.4375 229.1406,338.0938 Q228.5938,336.7344 228.5938,334.9375 Q228.5938,332.9063 229.25,331.4531 Q229.9063,330 231.1875,329.2188 Q232.4688,328.4375 234.3438,328.4375 Q235.2344,328.4375 235.9063,328.625 Q236.5781,328.7969 237.2656,329.1406 L236.4531,331.1563 Q235.8281,330.8438 235.2813,330.7188 Q234.75,330.5938 234.2656,330.5938 Q233.0938,330.5938 232.3906,331.125 Q231.6875,331.6563 231.3906,332.6094 Q231.0938,333.5625 231.0938,334.8281 Q231.0938,336.8438 231.8125,337.8125 Q232.5313,338.7656 234.125,338.7656 Q234.7188,338.7656 235.3438,338.6094 Q235.9688,338.4531 236.7969,338.0781 L236.7969,340.2969 Q236.0625,340.6094 235.2656,340.7656 Q234.4844,340.9219 233.7188,340.9219 Z " fill="#000000"/><text fill="#000000" font-family="sans-serif" font-size="14" lengthAdjust="spacing" textLength="26" x="254.75" y="339.432">Blip</text><line style="stroke:#181818;stroke-width:0.5;" x1="184" x2="319" y1="350" y2="350"/><text fill="#000000" font-family="sans-serif" font-size="14" lengthAdjust="spacing" textLength="51" x="189" y="368.9659">content</text><text fill="#000000" font-family="sans-serif" font-size="14" lengthAdjust="spacing" textLength="119" x="189" y="388.0339">creationDateTime</text><text fill="#000000" font-family="sans-serif" font-size="14" lengthAdjust="spacing" textLength="125" x="189" y="407.1018">parentWave: Wave</text><line style="stroke:#181818;stroke-width:0.5;" x1="184" x2="319" y1="415.2038" y2="415.2038"/></g><!--MD5=[3fd616f346a44cd59a91eb10b19e157c]
class User--><g id="elem_User"><rect codeLine="12" fill="#F1F1F1" height="67.0679" id="User" rx="2.5" ry="2.5" style="stroke:#181818;stroke-width:0.5;" width="63" x="7" y="337"/><ellipse cx="22" cy="353" fill="#ADD1B2" rx="11" ry="11" style="stroke:#181818;stroke-width:1.0;"/><path d="M21.4688,359.9219 Q19.7188,359.9219 18.5781,359.1875 Q17.4531,358.4375 16.8906,357.0938 Q16.3438,355.7344 16.3438,353.9375 Q16.3438,351.9063 17,350.4531 Q17.6563,349 18.9375,348.2188 Q20.2188,347.4375 22.0938,347.4375 Q22.9844,347.4375 23.6563,347.625 Q24.3281,347.7969 25.0156,348.1406 L24.2031,350.1563 Q23.5781,349.8438 23.0313,349.7188 Q22.5,349.5938 22.0156,349.5938 Q20.8438,349.5938 20.1406,350.125 Q19.4375,350.6563 19.1406,351.6094 Q18.8438,352.5625 18.8438,353.8281 Q18.8438,355.8438 19.5625,356.8125 Q20.2813,357.7656 21.875,357.7656 Q22.4688,357.7656 23.0938,357.6094 Q23.7188,357.4531 24.5469,357.0781 L24.5469,359.2969 Q23.8125,359.6094 23.0156,359.7656 Q22.2344,359.9219 21.4688,359.9219 Z " fill="#000000"/><text fill="#000000" font-family="sans-serif" font-size="14" lengthAdjust="spacing" textLength="31" x="36" y="358.432">User</text><line style="stroke:#181818;stroke-width:0.5;" x1="8" x2="69" y1="369" y2="369"/><text fill="#000000" font-family="sans-serif" font-size="14" lengthAdjust="spacing" textLength="38" x="13" y="387.9659">name</text><line style="stroke:#181818;stroke-width:0.5;" x1="8" x2="69" y1="396.0679" y2="396.0679"/></g><!--MD5=[948346f2dfe9866ea883595a582714fa]
class Thread--><g id="elem_Thread"><rect codeLine="16" fill="#F1F1F1" height="67.0679" id="Thread" rx="2.5" ry="2.5" style="stroke:#181818;stroke-width:0.5;" width="137" x="183" y="172"/><ellipse cx="223.65" cy="188" fill="#ADD1B2" rx="11" ry="11" style="stroke:#181818;stroke-width:1.0;"/><path d="M223.1188,194.9219 Q221.3688,194.9219 220.2281,194.1875 Q219.1031,193.4375 218.5406,192.0938 Q217.9938,190.7344 217.9938,188.9375 Q217.9938,186.9063 218.65,185.4531 Q219.3063,184 220.5875,183.2188 Q221.8688,182.4375 223.7438,182.4375 Q224.6344,182.4375 225.3063,182.625 Q225.9781,182.7969 226.6656,183.1406 L225.8531,185.1563 Q225.2281,184.8438 224.6813,184.7188 Q224.15,184.5938 223.6656,184.5938 Q222.4938,184.5938 221.7906,185.125 Q221.0875,185.6563 220.7906,186.6094 Q220.4938,187.5625 220.4938,188.8281 Q220.4938,190.8438 221.2125,191.8125 Q221.9313,192.7656 223.525,192.7656 Q224.1188,192.7656 224.7438,192.6094 Q225.3688,192.4531 226.1969,192.0781 L226.1969,194.2969 Q225.4625,194.6094 224.6656,194.7656 Q223.8844,194.9219 223.1188,194.9219 Z " fill="#000000"/><text fill="#000000" font-family="sans-serif" font-size="14" lengthAdjust="spacing" textLength="48" x="243.35" y="193.432">Thread</text><line style="stroke:#181818;stroke-width:0.5;" x1="184" x2="319" y1="204" y2="204"/><text fill="#000000" font-family="sans-serif" font-size="14" lengthAdjust="spacing" textLength="125" x="189" y="222.9659">parentWave: Wave</text><line style="stroke:#181818;stroke-width:0.5;" x1="184" x2="319" y1="231.0679" y2="231.0679"/></g><!--MD5=[faebc81c07309c527f2fda51bf6b78ab]
class Annotation--><g id="elem_Annotation"><rect codeLine="20" fill="#F1F1F1" height="86.1358" id="Annotation" rx="2.5" ry="2.5" style="stroke:#181818;stroke-width:0.5;" width="117" x="421" y="327.5"/><ellipse cx="440.95" cy="343.5" fill="#ADD1B2" rx="11" ry="11" style="stroke:#181818;stroke-width:1.0;"/><path d="M440.4188,350.4219 Q438.6688,350.4219 437.5281,349.6875 Q436.4031,348.9375 435.8406,347.5938 Q435.2938,346.2344 435.2938,344.4375 Q435.2938,342.4063 435.95,340.9531 Q436.6063,339.5 437.8875,338.7188 Q439.1688,337.9375 441.0438,337.9375 Q441.9344,337.9375 442.6063,338.125 Q443.2781,338.2969 443.9656,338.6406 L443.1531,340.6563 Q442.5281,340.3438 441.9813,340.2188 Q441.45,340.0938 440.9656,340.0938 Q439.7938,340.0938 439.0906,340.625 Q438.3875,341.1563 438.0906,342.1094 Q437.7938,343.0625 437.7938,344.3281 Q437.7938,346.3438 438.5125,347.3125 Q439.2313,348.2656 440.825,348.2656 Q441.4188,348.2656 442.0438,348.1094 Q442.6688,347.9531 443.4969,347.5781 L443.4969,349.7969 Q442.7625,350.1094 441.9656,350.2656 Q441.1844,350.4219 440.4188,350.4219 Z " fill="#000000"/><text fill="#000000" font-family="sans-serif" font-size="14" lengthAdjust="spacing" textLength="74" x="456.05" y="348.932">Annotation</text><line style="stroke:#181818;stroke-width:0.5;" x1="422" x2="537" y1="359.5" y2="359.5"/><text fill="#000000" font-family="sans-serif" font-size="14" lengthAdjust="spacing" textLength="51" x="427" y="378.4659">content</text><text fill="#000000" font-family="sans-serif" font-size="14" lengthAdjust="spacing" textLength="105" x="427" y="397.5339">parentBlip: Blip</text><line style="stroke:#181818;stroke-width:0.5;" x1="422" x2="537" y1="405.6358" y2="405.6358"/></g><!--MD5=[6799959a82085bd550e888ac0edc64d7]
link Wave to Thread--><g id="link_Wave_Thread"><path codeLine="25" d="M251.5,93.35 C251.5,118.02 251.5,148.67 251.5,171.53 " fill="none" id="Wave-Thread" style="stroke:#181818;stroke-width:1.0;"/><polygon fill="#000000" points="256.5,137.853,259.4389,128.8079,253.5611,128.8079,256.5,137.853" style="stroke:#000000;stroke-width:1.0;"/><text fill="#000000" font-family="sans-serif" font-size="13" lengthAdjust="spacing" textLength="51" x="265.5" y="137.897">contains</text><text fill="#000000" font-family="sans-serif" font-size="13" lengthAdjust="spacing" textLength="7" x="243.9859" y="114.9044">1</text><text fill="#000000" font-family="sans-serif" font-size="13" lengthAdjust="spacing" textLength="20" x="229.5313" y="160.1285">0..*</text></g><!--MD5=[7904d776b3b906aa05edeb4265cccab3]
link Thread to Blip--><g id="link_Thread_Blip"><path codeLine="26" d="M251.5,239.09 C251.5,261.58 251.5,291.94 251.5,317.71 " fill="none" id="Thread-Blip" style="stroke:#181818;stroke-width:1.0;"/><polygon fill="#000000" points="256.5,283.853,259.4389,274.8079,253.5611,274.8079,256.5,283.853" style="stroke:#000000;stroke-width:1.0;"/><text fill="#000000" font-family="sans-serif" font-size="13" lengthAdjust="spacing" textLength="51" x="265.5" y="283.897">contains</text><text fill="#000000" font-family="sans-serif" font-size="13" lengthAdjust="spacing" textLength="7" x="243.8328" y="261.0712">1</text><text fill="#000000" font-family="sans-serif" font-size="13" lengthAdjust="spacing" textLength="20" x="230.0938" y="306.0234">0..*</text></g><!--MD5=[15a8f0d16c41851bf3e8d105c8896ea7]
link Blip to Annotation--><g id="link_Blip_Annotation"><path codeLine="27" d="M320.22,370.5 C352.34,370.5 390.19,370.5 420.94,370.5 " fill="none" id="Blip-Annotation" style="stroke:#181818;stroke-width:1.0;"/><polygon fill="#000000" points="347.5,358.353,338.4549,355.4141,338.4549,361.2919,347.5,358.353" style="stroke:#000000;stroke-width:1.0;"/><text fill="#000000" font-family="sans-serif" font-size="13" lengthAdjust="spacing" textLength="51" x="351.5" y="363.397">contains</text><text fill="#000000" font-family="sans-serif" font-size="13" lengthAdjust="spacing" textLength="7" x="328.1191" y="366.4948">1</text><text fill="#000000" font-family="sans-serif" font-size="13" lengthAdjust="spacing" textLength="20" x="393.0128" y="385.4128">0..*</text></g><!--MD5=[6a7e47ba0e059db734f83d4372bb34c4]
link User to Blip--><g id="link_User_Blip"><path codeLine="28" d="M70.39,370.5 C99.98,370.5 145.02,370.5 182.78,370.5 " fill="none" id="User-Blip" style="stroke:#181818;stroke-width:1.0;"/><polygon fill="#000000" points="87.5,358.353,96.5451,361.2919,96.5451,355.4141,87.5,358.353" style="stroke:#000000;stroke-width:1.0;"/><text fill="#000000" font-family="sans-serif" font-size="13" lengthAdjust="spacing" textLength="63" x="101.5" y="363.397">created by</text><text fill="#000000" font-family="sans-serif" font-size="13" lengthAdjust="spacing" textLength="7" x="78.1316" y="365.6074">1</text><text fill="#000000" font-family="sans-serif" font-size="13" lengthAdjust="spacing" textLength="7" x="167.8809" y="366.4948">1</text></g><!--MD5=[32c352e60a73460c1dc6e46b14bef56f]
@startuml
class Wave {
  title
  creationDateTime
}

class Blip {
  content
  creationDateTime
  parentWave: Wave 
}

class User {
  name
}

class Thread {
  parentWave: Wave
}

class Annotation {
  content 
  parentBlip: Blip
}

Wave "1" - - "0..*" Thread : contains >
Thread "1" - - "0..*" Blip : contains >
Blip "1" -r- "0..*" Annotation : contains >
Blip "1" -l- "1" User : created by >
@enduml

PlantUML version 1.2022.7(Mon Aug 22 19:01:30 CEST 2022)
(GPL source distribution)
Java Runtime: OpenJDK Runtime Environment
JVM: OpenJDK 64-Bit Server VM
Default Encoding: UTF-8
Language: es
Country: ES
--></g></svg>