<?xml version="1.0" encoding="UTF-8" standalone="no"?><svg xmlns="http://www.w3.org/2000/svg" xmlns:xlink="http://www.w3.org/1999/xlink" contentStyleType="text/css" height="303px" preserveAspectRatio="none" style="width:341px;height:303px;background:#FFFFFF;" version="1.1" viewBox="0 0 341 303" width="341px" zoomAndPan="magnify"><defs/><g><!--MD5=[d937b3b706c3f306f01927ee4adaac57]
class Wave--><g id="elem_Wave"><rect codeLine="1" fill="#F1F1F1" height="86.1358" id="Wave" rx="2.5" ry="2.5" style="stroke:#181818;stroke-width:0.5;" width="145" x="186" y="7"/><ellipse cx="236.25" cy="23" fill="#ADD1B2" rx="11" ry="11" style="stroke:#181818;stroke-width:1.0;"/><path d="M235.7188,29.9219 Q233.9688,29.9219 232.8281,29.1875 Q231.7031,28.4375 231.1406,27.0938 Q230.5938,25.7344 230.5938,23.9375 Q230.5938,21.9063 231.25,20.4531 Q231.9063,19 233.1875,18.2188 Q234.4688,17.4375 236.3438,17.4375 Q237.2344,17.4375 237.9063,17.625 Q238.5781,17.7969 239.2656,18.1406 L238.4531,20.1563 Q237.8281,19.8438 237.2813,19.7188 Q236.75,19.5938 236.2656,19.5938 Q235.0938,19.5938 234.3906,20.125 Q233.6875,20.6563 233.3906,21.6094 Q233.0938,22.5625 233.0938,23.8281 Q233.0938,25.8438 233.8125,26.8125 Q234.5313,27.7656 236.125,27.7656 Q236.7188,27.7656 237.3438,27.6094 Q237.9688,27.4531 238.7969,27.0781 L238.7969,29.2969 Q238.0625,29.6094 237.2656,29.7656 Q236.4844,29.9219 235.7188,29.9219 Z " fill="#000000"/><text fill="#000000" font-family="sans-serif" font-size="14" lengthAdjust="spacing" textLength="36" x="256.75" y="28.432">Wave</text><line style="stroke:#181818;stroke-width:0.5;" x1="187" x2="330" y1="39" y2="39"/><rect fill="none" height="6" style="stroke:#C82930;stroke-width:1.0;" width="6" x="194" y="51.034"/><text fill="#000000" font-family="sans-serif" font-size="14" lengthAdjust="spacing" textLength="26" x="206" y="57.9659">title</text><rect fill="none" height="6" style="stroke:#C82930;stroke-width:1.0;" width="6" x="194" y="70.1019"/><text fill="#000000" font-family="sans-serif" font-size="14" lengthAdjust="spacing" textLength="119" x="206" y="77.0339">creationDateTime</text><line style="stroke:#181818;stroke-width:0.5;" x1="187" x2="330" y1="85.1358" y2="85.1358"/></g><!--MD5=[98df0f29f8902419e98f84c7decc5a9c]
class Blip--><g id="elem_Blip"><rect codeLine="6" fill="#F1F1F1" height="124.2717" id="Blip" rx="2.5" ry="2.5" style="stroke:#181818;stroke-width:0.5;" width="151" x="183" y="172"/><ellipse cx="241.25" cy="188" fill="#ADD1B2" rx="11" ry="11" style="stroke:#181818;stroke-width:1.0;"/><path d="M240.7188,194.9219 Q238.9688,194.9219 237.8281,194.1875 Q236.7031,193.4375 236.1406,192.0938 Q235.5938,190.7344 235.5938,188.9375 Q235.5938,186.9063 236.25,185.4531 Q236.9063,184 238.1875,183.2188 Q239.4688,182.4375 241.3438,182.4375 Q242.2344,182.4375 242.9063,182.625 Q243.5781,182.7969 244.2656,183.1406 L243.4531,185.1563 Q242.8281,184.8438 242.2813,184.7188 Q241.75,184.5938 241.2656,184.5938 Q240.0938,184.5938 239.3906,185.125 Q238.6875,185.6563 238.3906,186.6094 Q238.0938,187.5625 238.0938,188.8281 Q238.0938,190.8438 238.8125,191.8125 Q239.5313,192.7656 241.125,192.7656 Q241.7188,192.7656 242.3438,192.6094 Q242.9688,192.4531 243.7969,192.0781 L243.7969,194.2969 Q243.0625,194.6094 242.2656,194.7656 Q241.4844,194.9219 240.7188,194.9219 Z " fill="#000000"/><text fill="#000000" font-family="sans-serif" font-size="14" lengthAdjust="spacing" textLength="26" x="261.75" y="193.432">Blip</text><line style="stroke:#181818;stroke-width:0.5;" x1="184" x2="333" y1="204" y2="204"/><rect fill="none" height="6" style="stroke:#C82930;stroke-width:1.0;" width="6" x="191" y="216.034"/><text fill="#000000" font-family="sans-serif" font-size="14" lengthAdjust="spacing" textLength="51" x="203" y="222.9659">content</text><rect fill="none" height="6" style="stroke:#C82930;stroke-width:1.0;" width="6" x="191" y="235.1019"/><text fill="#000000" font-family="sans-serif" font-size="14" lengthAdjust="spacing" textLength="45" x="203" y="242.0339">author</text><rect fill="none" height="6" style="stroke:#C82930;stroke-width:1.0;" width="6" x="191" y="254.1698"/><text fill="#000000" font-family="sans-serif" font-size="14" lengthAdjust="spacing" textLength="119" x="203" y="261.1018">creationDateTime</text><rect fill="none" height="6" style="stroke:#C82930;stroke-width:1.0;" width="6" x="191" y="273.2377"/><text fill="#000000" font-family="sans-serif" font-size="14" lengthAdjust="spacing" textLength="125" x="203" y="280.1697">parentWave: Wave</text><line style="stroke:#181818;stroke-width:0.5;" x1="184" x2="333" y1="288.2717" y2="288.2717"/></g><!--MD5=[3fd616f346a44cd59a91eb10b19e157c]
class User--><g id="elem_User"><rect codeLine="13" fill="#F1F1F1" height="67.0679" id="User" rx="2.5" ry="2.5" style="stroke:#181818;stroke-width:0.5;" width="63" x="7" y="200.5"/><ellipse cx="22" cy="216.5" fill="#ADD1B2" rx="11" ry="11" style="stroke:#181818;stroke-width:1.0;"/><path d="M21.4688,223.4219 Q19.7188,223.4219 18.5781,222.6875 Q17.4531,221.9375 16.8906,220.5938 Q16.3438,219.2344 16.3438,217.4375 Q16.3438,215.4063 17,213.9531 Q17.6563,212.5 18.9375,211.7188 Q20.2188,210.9375 22.0938,210.9375 Q22.9844,210.9375 23.6563,211.125 Q24.3281,211.2969 25.0156,211.6406 L24.2031,213.6563 Q23.5781,213.3438 23.0313,213.2188 Q22.5,213.0938 22.0156,213.0938 Q20.8438,213.0938 20.1406,213.625 Q19.4375,214.1563 19.1406,215.1094 Q18.8438,216.0625 18.8438,217.3281 Q18.8438,219.3438 19.5625,220.3125 Q20.2813,221.2656 21.875,221.2656 Q22.4688,221.2656 23.0938,221.1094 Q23.7188,220.9531 24.5469,220.5781 L24.5469,222.7969 Q23.8125,223.1094 23.0156,223.2656 Q22.2344,223.4219 21.4688,223.4219 Z " fill="#000000"/><text fill="#000000" font-family="sans-serif" font-size="14" lengthAdjust="spacing" textLength="31" x="36" y="221.932">User</text><line style="stroke:#181818;stroke-width:0.5;" x1="8" x2="69" y1="232.5" y2="232.5"/><text fill="#000000" font-family="sans-serif" font-size="14" lengthAdjust="spacing" textLength="38" x="13" y="251.4659">name</text><line style="stroke:#181818;stroke-width:0.5;" x1="8" x2="69" y1="259.5679" y2="259.5679"/></g><!--MD5=[c03891c68c428fecbdce1c33b905fec3]
link Wave to Blip--><g id="link_Wave_Blip"><path codeLine="17" d="M258.5,93.21 C258.5,116.52 258.5,145.9 258.5,171.7 " fill="none" id="Wave-Blip" style="stroke:#181818;stroke-width:1.0;"/><polygon fill="#000000" points="263.5,137.853,266.4389,128.8079,260.5611,128.8079,263.5,137.853" style="stroke:#000000;stroke-width:1.0;"/><text fill="#000000" font-family="sans-serif" font-size="13" lengthAdjust="spacing" textLength="51" x="272.5" y="137.897">contains</text><text fill="#000000" font-family="sans-serif" font-size="13" lengthAdjust="spacing" textLength="7" x="250.9641" y="115.0688">1</text><text fill="#000000" font-family="sans-serif" font-size="13" lengthAdjust="spacing" textLength="20" x="237.2813" y="159.9947">0..*</text></g><!--MD5=[6a7e47ba0e059db734f83d4372bb34c4]
link User to Blip--><g id="link_User_Blip"><path codeLine="18" d="M70.02,234 C99.37,234 144.26,234 182.88,234 " fill="none" id="User-Blip" style="stroke:#181818;stroke-width:1.0;"/><polygon fill="#000000" points="87.5,221.853,96.5451,224.7919,96.5451,218.9141,87.5,221.853" style="stroke:#000000;stroke-width:1.0;"/><text fill="#000000" font-family="sans-serif" font-size="13" lengthAdjust="spacing" textLength="63" x="101.5" y="226.897">created by</text><text fill="#000000" font-family="sans-serif" font-size="13" lengthAdjust="spacing" textLength="7" x="78.1184" y="229.0052">1</text><text fill="#000000" font-family="sans-serif" font-size="13" lengthAdjust="spacing" textLength="7" x="168.0916" y="230.0817">1</text></g><!--MD5=[5f524dbb9796e24d631f0f8e2e8aff40]
@startuml
class Wave {
  - title
  - creationDateTime
}

class Blip {
  - content
  - author
  - creationDateTime
  - parentWave: Wave
}

class User {
  name
}

Wave "1" - - "0..*" Blip : contains >
Blip "1" -l- "1" User : created by >
@enduml

PlantUML version 1.2022.7(Mon Aug 22 19:01:30 CEST 2022)
(GPL source distribution)
Java Runtime: OpenJDK Runtime Environment
JVM: OpenJDK 64-Bit Server VM
Default Encoding: UTF-8
Language: es
Country: ES
--></g></svg>