<?xml version="1.0" encoding="UTF-8" standalone="no"?><svg xmlns="http://www.w3.org/2000/svg" xmlns:xlink="http://www.w3.org/1999/xlink" contentStyleType="text/css" height="341px" preserveAspectRatio="none" style="width:451px;height:341px;background:#FFFFFF;" version="1.1" viewBox="0 0 451 341" width="451px" zoomAndPan="magnify"><defs/><g><!--MD5=[d937b3b706c3f306f01927ee4adaac57]
class Wave--><g id="elem_Wave"><rect codeLine="2" fill="#F1F1F1" height="105.2038" id="Wave" rx="2.5" ry="2.5" style="stroke:#181818;stroke-width:0.5;" width="213" x="231.5" y="7"/><ellipse cx="315.75" cy="23" fill="#ADD1B2" rx="11" ry="11" style="stroke:#181818;stroke-width:1.0;"/><path d="M315.2188,29.9219 Q313.4688,29.9219 312.3281,29.1875 Q311.2031,28.4375 310.6406,27.0938 Q310.0938,25.7344 310.0938,23.9375 Q310.0938,21.9063 310.75,20.4531 Q311.4063,19 312.6875,18.2188 Q313.9688,17.4375 315.8438,17.4375 Q316.7344,17.4375 317.4063,17.625 Q318.0781,17.7969 318.7656,18.1406 L317.9531,20.1563 Q317.3281,19.8438 316.7813,19.7188 Q316.25,19.5938 315.7656,19.5938 Q314.5938,19.5938 313.8906,20.125 Q313.1875,20.6563 312.8906,21.6094 Q312.5938,22.5625 312.5938,23.8281 Q312.5938,25.8438 313.3125,26.8125 Q314.0313,27.7656 315.625,27.7656 Q316.2188,27.7656 316.8438,27.6094 Q317.4688,27.4531 318.2969,27.0781 L318.2969,29.2969 Q317.5625,29.6094 316.7656,29.7656 Q315.9844,29.9219 315.2188,29.9219 Z " fill="#000000"/><text fill="#000000" font-family="sans-serif" font-size="14" lengthAdjust="spacing" textLength="36" x="336.25" y="28.432">Wave</text><line style="stroke:#181818;stroke-width:0.5;" x1="232.5" x2="443.5" y1="39" y2="39"/><rect fill="none" height="6" style="stroke:#C82930;stroke-width:1.0;" width="6" x="239.5" y="51.034"/><text fill="#000000" font-family="sans-serif" font-size="14" lengthAdjust="spacing" textLength="61" x="251.5" y="57.9659">id: string</text><rect fill="none" height="6" style="stroke:#C82930;stroke-width:1.0;" width="6" x="239.5" y="70.1019"/><text fill="#000000" font-family="sans-serif" font-size="14" lengthAdjust="spacing" textLength="74" x="251.5" y="77.0339">title: string</text><rect fill="none" height="6" style="stroke:#C82930;stroke-width:1.0;" width="6" x="239.5" y="89.1698"/><text fill="#000000" font-family="sans-serif" font-size="14" lengthAdjust="spacing" textLength="187" x="251.5" y="96.1018">creationDateTime: datetime</text><line style="stroke:#181818;stroke-width:0.5;" x1="232.5" x2="443.5" y1="104.2038" y2="104.2038"/></g><!--MD5=[98df0f29f8902419e98f84c7decc5a9c]
class Blip--><g id="elem_Blip"><rect codeLine="8" fill="#F1F1F1" height="143.3396" id="Blip" rx="2.5" ry="2.5" style="stroke:#181818;stroke-width:0.5;" width="213" x="231.5" y="191"/><ellipse cx="320.75" cy="207" fill="#ADD1B2" rx="11" ry="11" style="stroke:#181818;stroke-width:1.0;"/><path d="M320.2188,213.9219 Q318.4688,213.9219 317.3281,213.1875 Q316.2031,212.4375 315.6406,211.0938 Q315.0938,209.7344 315.0938,207.9375 Q315.0938,205.9063 315.75,204.4531 Q316.4063,203 317.6875,202.2188 Q318.9688,201.4375 320.8438,201.4375 Q321.7344,201.4375 322.4063,201.625 Q323.0781,201.7969 323.7656,202.1406 L322.9531,204.1563 Q322.3281,203.8438 321.7813,203.7188 Q321.25,203.5938 320.7656,203.5938 Q319.5938,203.5938 318.8906,204.125 Q318.1875,204.6563 317.8906,205.6094 Q317.5938,206.5625 317.5938,207.8281 Q317.5938,209.8438 318.3125,210.8125 Q319.0313,211.7656 320.625,211.7656 Q321.2188,211.7656 321.8438,211.6094 Q322.4688,211.4531 323.2969,211.0781 L323.2969,213.2969 Q322.5625,213.6094 321.7656,213.7656 Q320.9844,213.9219 320.2188,213.9219 Z " fill="#000000"/><text fill="#000000" font-family="sans-serif" font-size="14" lengthAdjust="spacing" textLength="26" x="341.25" y="212.432">Blip</text><line style="stroke:#181818;stroke-width:0.5;" x1="232.5" x2="443.5" y1="223" y2="223"/><rect fill="none" height="6" style="stroke:#C82930;stroke-width:1.0;" width="6" x="239.5" y="235.034"/><text fill="#000000" font-family="sans-serif" font-size="14" lengthAdjust="spacing" textLength="61" x="251.5" y="241.9659">id: string</text><rect fill="none" height="6" style="stroke:#C82930;stroke-width:1.0;" width="6" x="239.5" y="254.1019"/><text fill="#000000" font-family="sans-serif" font-size="14" lengthAdjust="spacing" textLength="99" x="251.5" y="261.0339">content: string</text><rect fill="none" height="6" style="stroke:#C82930;stroke-width:1.0;" width="6" x="239.5" y="273.1698"/><text fill="#000000" font-family="sans-serif" font-size="14" lengthAdjust="spacing" textLength="93" x="251.5" y="280.1018">author: string</text><rect fill="none" height="6" style="stroke:#C82930;stroke-width:1.0;" width="6" x="239.5" y="292.2377"/><text fill="#000000" font-family="sans-serif" font-size="14" lengthAdjust="spacing" textLength="187" x="251.5" y="299.1697">creationDateTime: datetime</text><rect fill="none" height="6" style="stroke:#C82930;stroke-width:1.0;" width="6" x="239.5" y="311.3056"/><text fill="#000000" font-family="sans-serif" font-size="14" lengthAdjust="spacing" textLength="125" x="251.5" y="318.2376">parentWave: Wave</text><line style="stroke:#181818;stroke-width:0.5;" x1="232.5" x2="443.5" y1="326.3396" y2="326.3396"/></g><!--MD5=[3fd616f346a44cd59a91eb10b19e157c]
class User--><g id="elem_User"><rect codeLine="16" fill="#F1F1F1" height="86.1358" id="User" rx="2.5" ry="2.5" style="stroke:#181818;stroke-width:0.5;" width="112" x="7" y="219.5"/><ellipse cx="44.05" cy="235.5" fill="#ADD1B2" rx="11" ry="11" style="stroke:#181818;stroke-width:1.0;"/><path d="M43.5188,242.4219 Q41.7688,242.4219 40.6281,241.6875 Q39.5031,240.9375 38.9406,239.5938 Q38.3938,238.2344 38.3938,236.4375 Q38.3938,234.4063 39.05,232.9531 Q39.7063,231.5 40.9875,230.7188 Q42.2688,229.9375 44.1438,229.9375 Q45.0344,229.9375 45.7063,230.125 Q46.3781,230.2969 47.0656,230.6406 L46.2531,232.6563 Q45.6281,232.3438 45.0813,232.2188 Q44.55,232.0938 44.0656,232.0938 Q42.8938,232.0938 42.1906,232.625 Q41.4875,233.1563 41.1906,234.1094 Q40.8938,235.0625 40.8938,236.3281 Q40.8938,238.3438 41.6125,239.3125 Q42.3313,240.2656 43.925,240.2656 Q44.5188,240.2656 45.1438,240.1094 Q45.7688,239.9531 46.5969,239.5781 L46.5969,241.7969 Q45.8625,242.1094 45.0656,242.2656 Q44.2844,242.4219 43.5188,242.4219 Z " fill="#000000"/><text fill="#000000" font-family="sans-serif" font-size="14" lengthAdjust="spacing" textLength="31" x="62.95" y="240.932">User</text><line style="stroke:#181818;stroke-width:0.5;" x1="8" x2="118" y1="251.5" y2="251.5"/><rect fill="none" height="6" style="stroke:#C82930;stroke-width:1.0;" width="6" x="15" y="263.534"/><text fill="#000000" font-family="sans-serif" font-size="14" lengthAdjust="spacing" textLength="61" x="27" y="270.4659">id: string</text><rect fill="none" height="6" style="stroke:#C82930;stroke-width:1.0;" width="6" x="15" y="282.6019"/><text fill="#000000" font-family="sans-serif" font-size="14" lengthAdjust="spacing" textLength="86" x="27" y="289.5339">name: string</text><line style="stroke:#181818;stroke-width:0.5;" x1="8" x2="118" y1="297.6358" y2="297.6358"/></g><!--MD5=[c03891c68c428fecbdce1c33b905fec3]
link Wave to Blip--><g id="link_Wave_Blip"><path codeLine="21" d="M338,112 C338,135.96 338,164.84 338,190.81 " fill="none" id="Wave-Blip" style="stroke:#181818;stroke-width:1.0;"/><polygon fill="#000000" points="343,156.853,345.9389,147.8079,340.0611,147.8079,343,156.853" style="stroke:#000000;stroke-width:1.0;"/><text fill="#000000" font-family="sans-serif" font-size="13" lengthAdjust="spacing" textLength="51" x="352" y="156.897">contains</text><text fill="#000000" font-family="sans-serif" font-size="13" lengthAdjust="spacing" textLength="7" x="330.5297" y="134.1276">1</text><text fill="#000000" font-family="sans-serif" font-size="13" lengthAdjust="spacing" textLength="20" x="316.9063" y="178.9563">0..*</text></g><!--MD5=[6a7e47ba0e059db734f83d4372bb34c4]
link User to Blip--><g id="link_User_Blip"><path codeLine="22" d="M119.31,262.5 C151.61,262.5 193.21,262.5 231.44,262.5 " fill="none" id="User-Blip" style="stroke:#181818;stroke-width:1.0;"/><polygon fill="#000000" points="136.25,250.353,145.2951,253.2919,145.2951,247.4141,136.25,250.353" style="stroke:#000000;stroke-width:1.0;"/><text fill="#000000" font-family="sans-serif" font-size="13" lengthAdjust="spacing" textLength="63" x="150.25" y="255.397">created by</text><text fill="#000000" font-family="sans-serif" font-size="13" lengthAdjust="spacing" textLength="7" x="126.9732" y="258.3445">1</text><text fill="#000000" font-family="sans-serif" font-size="13" lengthAdjust="spacing" textLength="7" x="216.3575" y="258.7862">1</text></g><!--MD5=[cb860e684aa4322d4677e626a75a65b0]
@startuml

class Wave {
  - id: string
  - title: string
  - creationDateTime: datetime
}

class Blip {
  - id: string 
  - content: string
  - author: string
  - creationDateTime: datetime
  - parentWave: Wave
}

class User {
  - id: string
  - name: string
}

Wave "1" - - "0..*" Blip : contains >
Blip "1" -l- "1" User : created by >

@enduml

PlantUML version 1.2022.7(Mon Aug 22 19:01:30 CEST 2022)
(GPL source distribution)
Java Runtime: OpenJDK Runtime Environment
JVM: OpenJDK 64-Bit Server VM
Default Encoding: UTF-8
Language: es
Country: ES
--></g></svg>